# xmcd CD database file
#
# Track frame offsets:
#	150
#	16888
#	32978
#	48502
#	65004
#	84183
#	107363
#	123926
#	142487
#	163446
#	180610
#	194007
#	214689
#	233173
#	243579
#	260507
#	280620
#	297211
#	319713
#	336696
#
# Disc length: 4743 seconds
#
# Revision: 2
# Processed by: cddbd v1.5.2PL0 Copyright (c) Steve Scherf et al.
# Submitted via: CDex 1.51
#
DISCID=37128514
DTITLE=Various Artist - ZM-80's-BS-CD-3
DYEAR=1900
DGENRE=Blues
TTITLE0=Sheena Easton - Modern Girl
TTITLE1=Owen Paul - My Favourite Waste Of Time
TTITLE2=Adam And The Ants - Prince Charming
TTITLE3=Stray Cats The - Rock This Town
TTITLE4=Laura Branigan - Self Control
TTITLE5=Bronski Beat - Smalltown Boy
TTITLE6=Sinitta - So Macho
TTITLE7=Aztec Camera - Somewhere In My Heart
TTITLE8=Huey Lewis And The News - Stuck With You
TTITLE9=Kraftwork - The Model
TTITLE10=Men Without Hats - The Safety Dance
TTITLE11=Eurythmics The - Thorn In My Side
TTITLE12=Phil Oakey and Georgio Moroder - Together In Electric Dreams
TTITLE13=Specials The - Too Much, Too Young
TTITLE14=Howard Jones - What Is love
TTITLE15=Duran Duran - Wild Boys
TTITLE16=Cliff Richard - Wired For Sound
TTITLE17=Black - Wonderful Life
TTITLE18=Bluebells The - Young At Heart
TTITLE19=Fat Larry's Band - Zoom
EXTD=
EXTT0=
EXTT1=
EXTT2=
EXTT3=
EXTT4=
EXTT5=
EXTT6=
EXTT7=
EXTT8=
EXTT9=
EXTT10=
EXTT11=
EXTT12=
EXTT13=
EXTT14=
EXTT15=
EXTT16=
EXTT17=
EXTT18=
EXTT19=
PLAYORDER=
